<svg width="1440" height="935" viewBox="0 0 1440 935" fill="none" xmlns="http://www.w3.org/2000/svg">
<path d="M381.184 439.212C430.952 471.228 476.284 518.462 488.012 573.302C500.058 628.144 478.502 690.592 446.486 747.97C414.468 805.347 371.674 857.018 320.32 868.747C268.966 880.159 208.736 850.995 150.724 825.952C92.7135 800.592 36.604 779.353 2.0511 737.192C-32.1849 695.031 -44.8649 631.63 -36.9399 569.498C-29.3319 507.05 -1.1189 445.869 45.48 413.218C92.396 380.567 157.698 376.446 217.294 383.103C277.208 389.76 331.414 407.195 381.184 439.212Z" fill="#FFDBB4"/>
<path fill-rule="evenodd" clip-rule="evenodd" d="M229.579 479.44L224.114 492.962L227.125 535.821L229.365 536.17C253.028 539.841 269.107 541.695 277.603 541.733L277.866 541.734C286.422 541.734 296.674 539.821 308.622 535.996L309.166 535.821L310.546 503.729H307.293L301.409 489.923L301.414 489.918C301.479 490.029 301.547 490.136 301.617 490.24C304.07 493.871 305.492 490.939 311.255 492.223C318.155 493.761 321.219 500.741 327.294 505.957C330.114 508.379 336.034 509.52 338.867 511.186L341.843 512.936C351.168 518.44 361.885 525.127 367.512 533.837C374.109 544.049 378.656 553.739 382.855 565.099C391.906 589.584 398.188 614.569 402.676 640.264C407.226 666.306 409.96 692.672 412.049 719.017C413.016 731.225 413.836 743.444 414.517 755.671L414.685 758.728C415.042 765.381 414.731 771.891 408.687 775.988C404.357 778.923 398.61 779.37 393.529 779.671L393.253 779.688C355.69 781.892 318.126 784.081 280.562 786.274L224.218 789.571C214.843 790.121 205.467 790.667 196.092 791.209L173.207 792.532C162.422 793.146 151.623 793.678 140.823 793.615C127.235 793.536 113.704 792.531 100.241 790.719L99.0537 790.557C90.5837 789.386 78.3027 786.425 76.7813 776.259C76.5629 774.799 77.8467 773.887 78.9245 774.097C78.5698 772.442 78.3496 770.785 78.1392 769.345C77.2365 763.194 76.6697 757.003 76.3896 750.793C75.8277 738.366 76.3011 725.881 77.5425 713.508C79.5961 693.038 82.4748 672.604 85.4493 652.241L86.1116 647.717C89.2754 626.143 93.0423 604.606 98.9367 583.591C104.382 564.178 112.876 543.983 124.564 531.708C136.253 519.432 152.917 508.767 170.041 502.235C171.524 501.669 200.987 495.213 202.972 496.153L203.328 495.873C209.202 491.232 217.582 483.079 226.21 485.646L226.229 485.614C226.433 485.24 227.23 482.735 228.331 479.44H229.579Z" fill="#8FA7DF"/>
<path fill-rule="evenodd" clip-rule="evenodd" d="M235.81 461.443C242.946 452.389 250.468 449.51 261.583 450.185C269.121 449.915 276.639 451.874 283.021 456.199C288.869 459.258 294.055 463.467 297.757 468.887C300.923 473.52 298.517 484.969 301.409 489.923C301.381 490.462 301.366 490.953 301.366 491.397C301.366 495.684 304.347 500.467 310.309 505.748L310.546 505.957V537.107C300.523 540.192 288.114 541.734 273.319 541.734C258.744 541.734 243.585 539.285 227.841 534.387L227.125 534.162L224.114 500.307L227.125 490.939L227.124 483.092L228.288 479.582C230.348 473.411 233.502 464.372 235.81 461.443Z" fill="#694D3D"/>
<path fill-rule="evenodd" clip-rule="evenodd" d="M227.125 534.162C244.767 539.304 259.61 541.875 271.654 541.875C283.698 541.875 296.202 539.304 309.167 534.162L306.012 788.049L255.236 788.67L227.125 534.162Z" fill="#9FD8E5"/>
<path fill-rule="evenodd" clip-rule="evenodd" d="M140.01 645.018C139.815 644.651 140.269 644.321 140.57 644.586C147.41 650.593 150.991 660.241 151.742 669.159C152.537 678.615 151.409 688.406 150.978 697.859C150.498 708.388 150.067 718.921 149.482 729.445C148.887 740.122 148.247 750.796 147.698 761.476L146.463 785.5C146.331 788.06 146.616 791.209 145.634 793.598C144.113 797.302 139.593 796.729 138.644 793.633L138.614 793.531L138.527 793.598C137.689 790.808 138.317 787.494 138.459 784.61L139.753 758.362C140.667 739.809 141.482 721.256 142.464 702.707L142.798 696.524C143.257 688.201 143.609 679.898 143.892 671.577L143.984 668.803C144.252 660.448 144.039 652.561 140.01 645.018ZM305.822 491.001C309.633 490.639 312.511 491.904 315.97 493.236C317.477 493.816 318.904 494.486 320.35 495.18C322.16 496.049 323.324 497.584 324.439 499.208L325.035 500.083C329.676 506.889 332.799 514.741 336.322 522.151C340.443 530.819 344.605 539.468 348.638 548.177L350.628 552.468C351.623 554.614 352.615 556.76 353.593 558.914L355.281 562.662C356.978 566.463 358.498 570.485 356.081 574.406C353.832 578.053 349.847 580.875 346.691 583.694C344.058 586.046 341.425 588.398 338.791 590.75C344.236 596.206 347.891 603.077 350.039 610.446C353.092 609.173 356.818 608.929 359.974 608.378C364.392 607.607 364.933 614.301 360.764 614.22C357.684 614.159 354.071 614.474 350.913 613.825C351.461 616.246 351.86 618.704 352.113 621.169C353.441 634.086 350.54 647.079 347.515 659.578L347.266 660.604C343.98 674.132 340.865 687.695 338.078 701.335C335.285 715.004 332.773 728.731 330.543 742.503C328.273 756.521 326.666 770.617 324.94 784.709C324.679 786.842 323.338 788.67 320.983 788.67C319.021 788.67 316.779 786.838 317.025 784.709C318.806 769.363 321.333 754.097 323.843 738.855C328.166 712.608 333.607 686.588 339.866 660.74L340.96 656.238C343.776 644.563 346.331 632.534 344.918 620.492C343.768 610.686 339.671 600.231 331.575 594.14L331.328 593.957C329.437 592.569 328.709 589.914 330.572 588.086C331.757 586.923 332.944 585.761 334.132 584.6L341.259 577.635L342.696 576.229C343.894 575.058 345.098 573.894 346.338 572.767C347.088 572.084 349.123 570.783 349.271 569.661C349.368 568.929 348.502 567.643 348.15 566.968L346.542 563.718C345.628 561.865 344.743 559.999 343.851 558.135C342.003 554.274 340.127 550.425 338.319 546.545L327.456 523.248C324.391 516.676 321.661 509.737 317.654 503.661L316.864 502.476C316.205 501.479 315.622 500.519 315.205 499.299C314.805 498.126 314.302 496.837 313.561 495.836C311.826 493.486 308.509 492.153 305.733 491.66C305.332 491.589 305.478 491.034 305.822 491.001ZM222.269 484.882C222.511 484.882 222.547 485.227 222.325 485.294C218.976 486.302 215.777 487.928 213.166 490.275C211.918 491.398 210.66 492.672 209.889 494.184C209.594 494.763 209.431 495.374 209.311 496.008L209.273 496.22C209.074 497.364 208.789 498.002 208.208 498.918L208.108 499.074C204.791 504.201 202.466 509.896 200.34 515.598L195.711 528.031L191.084 540.466C189.594 544.472 188.102 548.479 186.611 552.486C185.788 554.698 184.941 556.901 184.094 559.104C183.728 560.058 183.334 561.005 182.999 561.971C182.953 562.103 182.806 562.899 182.697 563.092L182.734 563.157C183.667 564.728 186.156 566.041 187.566 567.182L192.423 571.112C195.887 573.915 199.439 576.639 202.798 579.567C204.908 581.405 203.595 584.697 201.242 585.465C197.299 586.75 193.435 588.289 189.551 589.744C187.982 590.331 186.348 590.843 184.797 591.49L183.853 591.899C183.485 592.065 183.662 592.063 183.677 592.744C183.691 593.458 183.894 594.203 184.01 594.905C185.318 602.822 186.705 610.726 188.169 618.616C193.347 646.517 199.533 674.214 206.588 701.699C210.152 715.578 213.974 729.389 217.615 743.249C221.248 757.071 226.028 770.695 230.592 784.232C231.88 788.049 225.832 789.693 224.576 785.892C219.315 769.97 214.503 753.91 209.534 737.898C200.705 709.448 193.747 680.379 187.594 651.241C184.544 636.799 181.755 622.302 179.228 607.76C178.75 605.006 178.281 602.252 177.821 599.495L177.152 595.441C176.693 592.551 176.431 589.541 178.676 587.254C180.867 585.021 184.629 584.23 187.513 583.183L187.723 583.106C189.558 582.421 191.406 581.761 193.247 581.08C190.535 578.943 187.856 576.759 185.151 574.623C182.968 572.9 180.751 571.212 178.6 569.45C176.826 567.996 175.38 566.129 175.195 563.765C175.006 561.349 176.041 559.107 176.875 556.891L176.955 556.677C177.775 554.465 178.596 552.253 179.439 550.049L184.651 536.406C187.964 527.736 191.137 518.996 194.621 510.394C195.999 506.99 197.501 503.639 199.276 500.421C200.132 498.869 201.05 497.351 202.048 495.886C203.165 494.244 204.18 493.443 205.911 492.537C208.68 491.088 210.854 488.659 213.634 487.165C216.363 485.699 219.171 484.916 222.269 484.882ZM231.258 469.415C231.364 469.233 231.645 469.314 231.648 469.521C231.721 473.83 230.698 478.233 230.069 482.493C229.436 486.769 229.234 491.282 228.319 495.512C228.3 495.709 228.262 495.903 228.208 496.094L228.165 496.239C227.779 497.424 226.775 498.428 225.544 498.742C225.931 500.89 226.296 503.041 226.603 505.204C227.13 508.921 227.611 512.645 228.084 516.369L228.65 520.838C229.185 525.05 229.705 529.264 230.219 533.479C231.526 534.026 232.861 534.477 234.227 534.869C237.374 535.77 240.597 536.136 243.845 536.455C250.458 537.104 257.122 537.405 263.759 537.774L265.18 537.854C272.642 538.282 280.144 538.358 287.586 537.592C291.277 537.212 294.938 536.574 298.537 535.671C300.366 535.211 302.143 534.526 303.968 534.077C304.573 533.928 305.114 533.585 305.721 533.218C305.99 532.877 306.368 532.619 306.86 532.52L306.994 532.497L307.126 532.477L307.171 532.457L307.168 532.471C307.541 532.421 307.896 532.421 308.23 532.467C308.364 529.181 308.508 525.895 308.689 522.61C309.174 513.787 310.515 504.583 308.725 495.837C308.665 495.543 309.065 495.439 309.169 495.714C312.681 504.973 312.286 515.098 312.463 524.843C312.636 534.372 312.531 543.909 312.484 553.441C313.166 553.732 313.775 554.125 314.257 554.678C315.219 555.782 315.496 557.702 314.257 558.768C313.707 559.24 313.099 559.568 312.454 559.796C312.42 568.077 312.361 576.358 312.278 584.64C313.852 585.856 313.999 588.744 312.219 589.945C311.923 616.763 311.436 643.581 311.032 670.395L310.186 726.651C310.073 734.147 309.887 741.642 309.82 749.136L309.873 749.157L310.06 749.244C310.375 749.392 310.844 749.632 310.942 749.877C310.967 749.941 310.974 749.985 310.971 750.018C311.487 750.09 311.999 750.335 312.441 750.755C313.534 751.794 313.312 753.36 312.441 754.418L312.209 754.701C311.666 755.36 310.635 755.614 309.794 755.48C309.802 760.158 309.832 764.836 309.817 769.514C309.813 770.942 309.791 772.371 309.766 773.8L309.708 777.226C309.668 779.18 309.495 781.665 307.495 782.543C305.238 783.534 303.214 782.722 302.3 780.428C302.052 779.807 302.106 779.228 302.196 778.613C302.168 777.69 302.023 776.62 302.041 775.764L302.116 772.192C302.127 771.642 302.15 771.091 302.165 770.54L302.1 770.547C294.08 770.937 286.004 770.747 277.971 770.742L274.398 770.747C271.418 770.75 268.43 770.734 265.454 770.62L264.338 770.572C262.109 770.468 259.766 770.434 257.455 770.235C257.75 772.608 258.025 774.983 258.27 777.361C258.502 779.615 256.177 781.531 254.103 781.531C251.641 781.531 250.232 779.593 249.937 777.361C248.545 766.83 247.975 756.201 246.646 745.663C245.455 736.225 244.422 726.765 243.372 717.309L243.021 714.157C239.18 679.745 235.45 645.319 231.883 610.877L230.221 594.777C228.544 578.549 226.856 562.32 225.433 546.068C224.619 536.776 223.869 527.483 223.164 518.182C222.646 511.35 222.321 504.555 222.109 497.735C221.274 496.876 220.856 495.62 221.226 494.324C221.442 493.568 221.693 492.815 221.959 492.064C221.942 491.326 221.925 490.588 221.91 489.849C221.897 489.15 222.606 488.79 223.174 488.906C224.206 486.406 225.342 483.927 226.29 481.451C227.825 477.442 229.09 473.123 231.258 469.415ZM145.543 512.735C161.587 502.672 180.685 495.431 199.813 496.21C200.249 496.228 200.371 496.892 199.919 496.992C189.716 499.272 179.401 502.049 169.742 506.091C160.054 510.145 150.843 515.603 142.638 522.163C127.501 534.266 115.736 550.008 107.989 567.753C103.451 578.148 100.27 589.122 97.4925 600.1C94.5533 611.719 92.131 623.462 90.1169 635.277C86.1388 658.613 83.8227 682.207 82.5904 705.841C81.3365 729.883 81.8533 753.942 80.9591 777.987C80.8045 782.153 74.8548 782.072 74.5523 777.987C72.5262 750.649 73.6487 722.875 75.5225 695.556C77.2074 670.998 80.1497 646.491 84.8876 622.328L85.3003 620.233C89.7296 597.878 95.072 574.981 105.78 554.735C114.922 537.45 129.035 523.09 145.543 512.735ZM368.342 619.58C368.426 619.34 368.742 619.343 368.826 619.58C370.655 624.704 370.721 630.486 371.207 635.887L371.245 636.302C371.712 641.229 372.063 646.162 372.389 651.098L372.51 652.95C373.821 673.09 375.458 693.207 377.926 713.241C380.385 733.199 383.71 753.018 387.305 772.798C387.706 775.001 386.731 777.244 384.423 777.878C382.389 778.438 379.778 777.184 379.348 774.994C377.116 763.641 375.311 752.272 373.7 740.821C370.866 720.655 368.75 700.397 367.39 680.079C366.708 669.874 366.287 659.673 366.12 649.446C366.043 644.701 366.166 639.945 366.419 635.205L366.479 634.111C366.758 629.266 366.729 624.2 368.342 619.58ZM194.973 747.858C195.188 747.742 195.453 747.981 195.317 748.203C192.211 753.256 188.008 757.613 183.946 761.907C179.699 766.396 175.558 771.02 171.225 775.421C168.095 778.6 163.059 773.472 166.363 770.555C171.008 766.454 175.863 762.558 180.591 758.549L182.658 756.795C186.535 753.517 190.526 750.269 194.973 747.858ZM342.53 745.328C342.298 744.885 342.828 744.527 343.188 744.82C345.694 746.859 347.94 749.292 350.36 751.444C352.756 753.576 355.242 755.565 357.796 757.504C360.36 759.451 362.98 761.321 365.671 763.09C367.903 764.557 370.203 765.732 372.541 766.951C373.623 767.09 374.626 767.622 375.428 768.63C376.696 770.224 376.831 773.23 375.072 774.614L374.756 774.862C372.703 776.477 370.265 776.674 368.244 774.862C365.987 772.84 363.854 770.614 361.686 768.476L361.035 767.838C358.706 765.572 356.434 763.233 354.291 760.789L352.352 758.581C348.754 754.475 345.009 750.049 342.53 745.328ZM330.987 508.598C330.57 508.321 330.827 507.577 331.342 507.755L332.286 508.081C336.229 509.453 340.287 510.974 343.867 513.085C347.715 515.354 351.267 518.057 354.661 520.956C361.686 526.958 367.663 534.338 372.742 542.031C382.933 557.467 389.236 575.146 394.324 592.834C399.75 611.694 403.928 630.961 407.339 650.281C410.804 669.916 413.478 689.729 415.235 709.591C416.101 719.375 416.682 729.165 416.974 738.983C417.125 744.034 417.12 749.081 417.078 754.134C417.067 755.433 417.076 756.732 417.091 758.03L417.14 761.927C417.166 764.391 417.461 766.98 416.876 769.387C415.934 773.261 409.534 772.538 409.744 768.578C409.551 767.261 409.543 765.899 409.593 764.535C409.563 764.359 409.53 764.18 409.493 763.997C409.388 763.474 409.478 762.989 409.683 762.572C409.716 761.918 409.746 761.267 409.757 760.628C409.799 758.027 409.796 755.436 409.724 752.835C409.573 747.351 409.355 741.868 409.135 736.387C408.695 725.434 408.083 714.477 407.196 703.551C404.109 665.52 397.591 627.272 386.644 590.684C381.559 573.693 374.549 557.014 364.497 542.332C360.035 535.814 355 529.793 349.419 524.206C343.802 518.583 337.613 512.989 330.987 508.598ZM255.236 753.762L255.994 759.254C256.374 762 256.749 764.747 257.106 767.496C259.527 767.165 262.004 767.026 264.338 766.819C268.423 766.457 272.536 766.281 276.633 766.112C285.105 765.762 293.619 765.156 302.1 765.198C302.187 765.199 302.269 765.204 302.352 765.211L302.772 754.375L296.814 754.366C291.765 754.358 286.718 754.315 281.669 754.271C277.123 754.232 272.574 754.226 268.028 754.131L266.08 754.085C262.633 753.992 258.826 754.184 255.236 753.762ZM303.272 738.033C303.029 738.062 302.782 738.086 302.519 738.097C301.339 738.147 300.149 738.112 298.968 738.122C296.453 738.144 293.939 738.161 291.424 738.16C286.394 738.16 281.365 738.19 276.336 738.251C271.159 738.314 265.986 738.404 260.808 738.414C258.3 738.418 255.799 738.352 253.291 738.282C253.697 741.848 254.121 745.412 254.589 748.967C258.483 748.441 262.671 748.706 266.477 748.67L266.971 748.663C272.166 748.575 277.365 748.64 282.561 748.646C287.906 748.653 293.25 748.67 298.596 748.714L302.987 748.75L302.995 748.529C303.124 745.034 303.207 741.534 303.272 738.033ZM251.36 720.971C251.846 725.181 252.303 729.398 252.769 733.613C253.079 733.566 253.392 733.524 253.712 733.491C256.224 733.228 258.731 733.003 261.252 732.846C266.277 732.535 271.302 732.37 276.336 732.235C281.512 732.096 286.689 731.99 291.867 731.916C294.383 731.881 296.896 731.885 299.412 731.902C300.592 731.91 301.784 731.873 302.962 731.952C303.103 731.962 303.237 731.976 303.37 731.992L303.459 725.662C303.474 724.607 303.49 723.553 303.507 722.498C299.619 722.738 295.666 722.647 291.781 722.648L290.885 722.65C286.004 722.672 281.12 722.605 276.239 722.504C271.204 722.399 266.179 722.234 261.152 721.911C259.116 721.781 257.094 721.607 255.069 721.384L254.056 721.268C253.174 721.164 252.267 721.08 251.36 720.971ZM303.908 703.109C294.544 703.853 285.23 704.164 275.842 704.256L274.433 704.268C266.136 704.331 257.771 704.674 249.455 704.454C249.952 708.768 250.448 713.083 250.948 717.397C252.139 717.341 253.335 717.341 254.499 717.299C256.867 717.213 259.227 717.192 261.596 717.186C266.477 717.175 271.358 717.218 276.239 717.208C281.27 717.197 286.299 717.112 291.329 717.017C295.407 716.941 299.528 716.634 303.617 716.645L303.908 703.109ZM304.304 684.702C303.219 685.063 301.938 685.086 300.534 685.15L296.909 685.331C295.229 685.414 293.548 685.491 291.867 685.552C286.265 685.758 280.664 685.949 275.061 686.128C269.32 686.31 263.551 686.416 257.809 686.235C254.996 686.146 252.207 685.999 249.403 685.764C248.709 685.706 248.003 685.668 247.295 685.618C247.947 691.334 248.603 697.05 249.26 702.765C257.537 701.749 265.877 701.116 274.143 700.064L281.618 699.109C289.089 698.155 296.554 697.219 304.052 696.429L304.304 684.702ZM304.703 666.092C303.111 666.485 301.296 666.466 299.768 666.562L299.484 666.582C296.588 666.802 293.683 666.912 290.78 666.983C285.089 667.124 279.395 667.194 273.702 667.229L270.279 667.25C265.716 667.277 261.155 667.288 256.591 667.182C253.663 667.114 250.741 666.97 247.816 666.824C246.939 666.779 246.043 666.75 245.144 666.705C245.756 672.117 246.374 677.528 246.99 682.939C247.951 682.786 248.917 682.67 249.838 682.514C252.196 682.116 254.549 681.797 256.924 681.512C262.068 680.896 267.239 680.452 272.407 680.077C277.713 679.692 283.023 679.367 288.329 678.994L292.088 678.729C293.34 678.642 294.593 678.558 295.847 678.481C297.987 678.35 300.475 678.498 302.598 678.032C303.173 677.792 303.811 677.737 304.451 677.874L304.703 666.092ZM305.185 644.308C304.634 645.008 303.811 645.375 302.83 645.502C297.721 646.166 292.48 646.272 287.327 646.585L286.419 646.642C281.098 646.993 275.775 647.269 270.45 647.552C264.981 647.842 259.512 648.079 254.038 648.27C251.714 648.351 249.378 648.36 247.051 648.331L246.054 648.316C245.098 648.299 244.097 648.302 243.094 648.269C243.649 653.33 244.21 658.39 244.778 663.449C245.801 663.337 246.824 663.253 247.816 663.147C250.74 662.838 253.66 662.532 256.591 662.301C262.144 661.863 267.701 661.6 273.264 661.324C278.956 661.042 284.651 660.855 290.344 660.589C293.104 660.459 295.864 660.299 298.616 660.045C300.544 659.867 302.835 659.21 304.848 659.452C304.958 654.404 305.072 649.356 305.185 644.308ZM305.634 624.794C305.547 624.929 305.445 625.06 305.321 625.181C303.072 627.406 300.299 627.234 297.318 627.468L297.135 627.482C294.214 627.728 291.291 627.962 288.366 628.173C282.519 628.596 276.661 628.891 270.806 629.154C264.814 629.424 258.783 629.61 252.785 629.487C248.944 629.408 244.921 629.422 241.003 629.048C241.605 634.621 242.21 640.194 242.82 645.766C243.921 645.559 245.03 645.399 246.08 645.234C248.727 644.817 251.376 644.398 254.038 644.092C259.357 643.479 264.677 642.906 270.007 642.389C274.564 641.946 279.12 641.497 283.681 641.093L286.419 640.856C291.86 640.398 297.371 639.643 302.83 639.531C303.73 639.513 304.748 640.003 305.263 640.776C305.384 635.449 305.509 630.121 305.634 624.794ZM306.012 608.997C304.622 609.166 303.125 609.07 301.842 609.112C298.6 609.218 295.357 609.316 292.114 609.412L272.656 609.987C266.032 610.182 259.384 610.329 252.756 610.235C249.841 610.194 246.913 610.189 243.999 610.03L243.028 609.971C241.828 609.891 240.356 609.88 238.919 609.734L240.616 625.464C244.515 624.901 248.533 624.69 252.398 624.359L253.224 624.286C258.926 623.767 264.655 623.423 270.366 623.036C276.225 622.639 282.076 622.157 287.927 621.664C290.851 621.418 293.775 621.172 296.698 620.903L297.059 620.868C299.819 620.579 302.415 619.965 304.859 621.594C305.217 621.832 305.497 622.15 305.689 622.507C305.796 618.004 305.9 613.5 306.012 608.997ZM306.465 590.639C294.615 591.116 282.763 591.478 270.904 591.637C264.229 591.727 257.563 591.664 250.888 591.524C247.994 591.463 245.076 591.325 242.184 591.103L241.101 591.016C239.726 590.9 238.282 590.816 236.843 590.677C237.438 596.086 238.027 601.495 238.613 606.905C240.027 606.642 241.506 606.521 242.746 606.362L243.028 606.325C246.108 605.9 249.218 605.653 252.314 605.381C258.342 604.849 264.401 604.507 270.445 604.216C276.635 603.917 282.828 603.665 289.018 603.389L295.209 603.112C296.241 603.066 297.273 603.021 298.305 602.978C299.779 602.915 301.253 602.856 302.727 602.795C303.454 602.765 304.21 602.666 304.938 602.704L305.146 602.676C305.241 602.664 305.325 602.654 305.403 602.645C305.601 602.495 305.814 602.369 306.04 602.275L306.177 602.221L306.465 590.639ZM234.9 573.241C235.451 578.11 235.995 582.98 236.532 587.851C238.222 587.658 239.932 587.551 241.546 587.405C244.8 587.114 248.069 586.858 251.333 586.708L257.856 586.404C262.205 586.203 266.553 586.009 270.904 585.85C282.814 585.415 294.723 584.916 306.625 584.308C306.709 581.005 306.796 577.701 306.884 574.398C306.313 575.01 305.487 575.413 304.403 575.411C291.907 575.377 279.402 575.449 266.908 575.244C260.654 575.141 254.407 574.989 248.16 574.668C245.104 574.511 242.03 574.191 238.997 573.77C237.703 573.591 236.288 573.463 234.9 573.241ZM232.9 555.891C233.488 560.879 234.064 565.868 234.631 570.858C236.183 570.581 237.786 570.433 239.234 570.236C242.344 569.813 245.474 569.475 248.607 569.298C254.703 568.953 260.803 568.779 266.908 568.65C279.401 568.384 291.907 568.386 304.403 568.287C305.577 568.278 306.448 568.743 307.02 569.437C307.107 566.322 307.199 563.207 307.293 560.092C306.086 559.965 304.889 559.784 303.782 559.707C300.379 559.469 296.974 559.252 293.568 559.056C286.461 558.648 279.346 558.3 272.234 557.99C265.12 557.68 258.003 557.378 250.887 557.114L247.774 557C242.825 556.816 237.792 556.583 232.9 555.891ZM230.663 537.107C231.274 542.159 231.876 547.211 232.477 552.264L232.66 553.828C238.612 552.67 244.884 552.33 250.887 552.075C258.004 551.772 265.11 551.616 272.234 551.638C279.351 551.659 286.457 551.828 293.568 552.122C297.121 552.269 300.674 552.439 304.225 552.632C305.202 552.685 306.347 552.656 307.525 552.673C307.551 551.879 307.572 551.085 307.6 550.292C307.708 547.076 307.814 543.86 307.924 540.644C305.522 541.879 302.399 542.377 299.985 542.903L299.71 542.964C295.724 543.86 291.655 544.44 287.586 544.795C279.597 545.493 271.524 545.232 263.543 544.557L262.145 544.437C255.135 543.829 247.869 543.058 241.074 541.322C237.838 540.495 234.492 539.338 231.591 537.661C231.29 537.487 230.978 537.302 230.663 537.107ZM298.15 477.079C298.22 476.806 298.628 476.744 298.763 476.999C299.707 478.793 300.058 480.947 300.713 482.87C301.418 484.937 302.076 487.02 302.854 489.062C304.48 493.328 306.397 497.428 308.684 501.381C310.948 505.294 304.608 508.088 302.942 503.803C301.222 499.382 299.808 494.81 298.953 490.138C298.535 487.859 298.163 485.548 298.042 483.232C297.938 481.242 297.659 479.02 298.15 477.079Z" fill="black"/>
<path fill-rule="evenodd" clip-rule="evenodd" d="M335.234 349.541C319.552 308.163 291.285 277.868 243.63 296.896C242.263 295.963 240.479 295.713 238.77 296.806C212.81 313.154 194.117 339.364 186.015 368.919C181.085 369.86 176.294 371.499 172.015 374.188C162.715 380.033 156.459 389.332 150.593 398.39C148.83 401.113 150.463 405.621 153.777 406.239C155.217 406.508 156.644 406.668 158.063 406.71C157.717 407.968 157.263 409.183 156.684 410.297C154.587 414.332 158.548 418.615 162.259 417.512C162.671 417.731 163.103 417.91 163.55 418.045C163.601 420.331 164.772 423.39 167.089 423.852C170.837 424.658 175.817 421.781 174.933 417.577C176.065 417.777 177.193 417.802 178.293 417.663C178.416 419.853 178.378 422.137 178.679 424.156C179.664 433.673 189.145 440.066 198.186 437.171C198.741 440.136 199.392 444.303 202.304 445.911C205.709 455.49 211.587 466.422 221.216 470.787C220.359 472.989 220.824 475.669 223.406 477.143C241.031 487.221 262.185 490.631 282.112 486.884C290.075 486.409 297.834 484.604 305.281 480.759C310.712 477.955 315.705 474.394 320.579 470.723C325.455 467.051 330.669 463.476 334.561 458.708C338.788 453.53 340.756 447.437 342.033 440.953C347.885 411.519 345.864 382.619 335.234 354.58C322.075 319.873 348.388 384.25 335.234 349.541Z" fill="#694D3D"/>
<path fill-rule="evenodd" clip-rule="evenodd" d="M171.969 372.496C186.607 363.836 205.274 366.078 214.068 379.492C215.586 381.807 216.634 384.355 217.375 387.304L217.494 387.794L217.614 388.31C217.997 390.015 218.248 391.619 218.589 394.347L218.967 397.442L219.075 398.286C219.441 401.087 219.762 402.857 220.263 404.661L220.362 405.011L220.941 407.009L218.757 407.818C214.574 409.333 213.698 409.469 211.284 408.203C209.399 407.215 208.415 405.884 207.105 403.188L206.916 402.793L206.498 401.914L206.271 401.45C205.418 399.742 204.735 397.92 203.769 397.258C202.458 396.359 198.326 396.002 195.452 396.356L195.302 396.375L195.178 396.401L194.965 396.449C190.132 397.595 185.727 401.508 182.821 405.643C180.482 408.972 179.138 413.166 178.973 417.525L178.963 417.815L178.906 420.04L174.221 419.94L174.267 419.074L174.197 419.228C172.721 422.349 169.012 424.427 165.91 422.361L165.799 422.286L165.687 422.205C163.067 420.271 162.752 416.357 164.902 413.979L165.001 413.872L165.098 413.774L165.078 413.765L165.056 413.757L165.042 413.756C164.31 413.891 163.666 414.267 162.796 415.069L162.572 415.279L162.123 415.767L161.658 416.265L161.458 416.471C161.33 416.6 161.213 416.714 161.103 416.814C160.954 416.95 160.816 417.064 160.667 417.168C160.528 417.264 160.385 417.348 160.212 417.424C159.785 417.61 159.329 417.698 158.745 417.554C157.944 417.357 157.493 416.871 157.22 416.299C157.114 416.077 157.053 415.872 157.01 415.657C156.965 415.431 156.943 415.201 156.931 414.936C156.924 414.762 156.921 414.572 156.922 414.365L156.928 414.041L156.939 413.689L156.951 413.408L157.004 412.365C157.193 408.942 158.09 405.58 159.626 402.406L159.782 402.09L159.84 401.975L159.679 402.191C158.632 403.575 157.621 404.535 156.358 405.168L156.185 405.253L156.015 405.33C154.263 406.102 152.499 405.802 151.434 404.372C150.697 403.382 150.479 402.079 150.63 400.709C150.923 398.05 151.972 395.616 154.024 392.064L154.312 391.57L155.439 389.653C159.781 382.324 165.362 376.404 171.969 372.496Z" fill="#E8E1E1"/>
<path fill-rule="evenodd" clip-rule="evenodd" d="M259.422 288.833C267.447 288.265 275.619 289.622 283.262 292.049C295.451 295.919 306.645 302.748 315.842 311.638C325.32 320.801 332.331 332.097 336.593 344.574C341.733 359.621 342.503 375.687 343.95 391.395C344.68 399.33 345.885 407.145 347.137 415.004L347.335 416.246C348.558 423.903 349.246 431.647 347.557 439.292C344.747 451.998 336.327 462.784 326.331 470.754C305.797 487.126 273.831 497.107 249.923 482.042C246.225 479.711 249.73 473.75 253.34 476.179C255.882 477.889 258.574 479.388 261.461 480.423C273.523 484.746 286.771 483.206 298.693 479.185C310.441 475.222 321.714 468.525 330.383 459.589C339.489 450.204 344.535 438.61 343.806 425.418C343.371 417.57 341.588 409.866 340.599 402.081C339.722 395.186 339.196 388.253 338.591 381.33L338.369 378.84C337.084 364.735 335.24 350.244 328.841 337.44C323.459 326.669 315.578 317.087 306.101 309.686C296.18 301.938 284.33 296.519 271.897 294.498C257.275 292.122 243.279 296.443 231.083 304.489C220.265 311.624 210.966 321.158 203.835 331.977C200.377 337.223 197.431 342.825 194.887 348.57C192.49 353.983 190.837 359.656 188.909 365.235C190.495 365.188 192.108 365.249 193.746 365.431C202.145 366.364 209.971 370.73 214.953 377.614C221.041 386.026 219.396 396.352 221.774 405.919C221.958 406.662 221.645 407.389 221.011 407.8C217.405 410.137 212.58 410.215 209.09 407.583C206.061 405.299 204.639 401.169 205.865 397.561C206.025 397.091 206.708 397.174 206.727 397.678C206.958 403.819 212.638 408.547 218.206 405.625C215.817 397.376 217.074 388.162 212.19 380.711C203.544 367.523 185.652 366.978 173.085 374.412C166.471 378.324 161.236 384.207 157.338 390.786L156.215 392.696C154.721 395.248 153.139 398.135 152.829 400.946C152.65 402.568 153.247 404.092 155.102 403.275C156.603 402.614 157.765 401.072 158.656 399.746C160.177 397.486 163.671 399.439 162.415 401.846L162.372 401.925C160.544 405.172 159.419 408.751 159.213 412.48L159.16 413.512C159.126 414.265 159.101 415.335 159.26 415.374C159.45 415.421 160.772 413.889 160.993 413.677C162.053 412.655 163.146 411.82 164.623 411.548C166.564 411.191 168.523 413.6 166.837 415.179L166.767 415.243C165.263 416.554 165.33 419.169 166.991 420.395C169.336 422.126 172.222 419.301 172.563 416.975L172.574 416.89C172.875 414.377 176.355 414.288 176.544 416.89C176.954 422.536 170.252 427.268 165.152 424.42C163.136 423.294 161.854 421.233 161.452 419.023C160.808 419.364 160.114 419.601 159.38 419.666C156.99 419.879 155.291 418.193 154.904 415.931C154.454 413.296 154.721 410.474 155.413 407.737C154.115 408.051 152.75 407.931 151.378 407.137C147.225 404.734 148.418 399.389 149.986 395.78C156.678 380.377 170.544 366.401 187.723 365.291C187.817 362.574 188.184 360.005 188.785 357.283C194.661 330.666 213.696 306.019 238.476 294.5C245.098 291.421 252.121 289.35 259.422 288.833ZM194.436 395.159L194.671 395.105C197.349 394.527 204.394 393.847 203.545 398.366C203.505 398.578 203.197 398.552 203.142 398.366C202.31 395.525 196.66 397.797 195.011 398.481C192.736 399.423 190.493 400.813 188.636 402.429C184.57 405.968 181.845 410.956 181.431 416.372C181.02 421.745 182.574 427.549 186.439 431.436C188.333 433.341 190.751 434.634 193.467 434.729C195.908 434.814 198.604 432.909 200.856 434.025C201.3 434.245 201.652 434.848 201.611 435.346C201.536 436.287 201.116 437.019 200.491 437.588C204.261 444.478 207.346 451.771 212.155 458.037C214.569 461.181 217.303 464.092 220.4 466.57C221.872 467.748 223.472 468.782 225.122 469.691C227.056 470.757 228.729 471.424 230.109 473.23C231.286 474.77 230.108 477.748 228.169 478.014C223.6 478.638 219.161 474.934 215.807 472.159C212.456 469.386 209.56 465.966 207.167 462.337C202.572 455.369 199.428 447.149 198.171 438.832C196.711 439.296 195.068 439.438 193.832 439.441C190.544 439.448 187.404 438.262 184.819 436.257C175.358 428.917 174.306 413.849 180.983 404.346C184.178 399.799 189.033 396.439 194.436 395.159ZM194.495 412.636C196.689 412.443 198.881 412.79 200.943 413.54L201.793 413.849C203.589 414.508 205.5 415.282 206.797 416.632C208.778 418.696 206.806 422.271 203.983 421.48C200.863 420.606 198.326 417.97 195.207 416.864C192.418 415.876 189.26 416.016 186.785 417.718C186.458 417.943 186.028 417.499 186.242 417.173C188.135 414.282 191.124 412.932 194.495 412.636Z" fill="black"/>
<path fill-rule="evenodd" clip-rule="evenodd" d="M303.043 445.778C303.729 444.586 305.306 443.481 306.75 443.65C313.217 444.409 313.206 452.257 310.709 456.838C308.495 460.901 303.912 463.285 299.326 462.937C294.507 462.571 290.402 459.736 288.595 455.225C287.4 452.24 286.848 446.731 290.027 444.726C290.086 444.689 290.183 444.698 290.23 444.752C291.754 446.527 291.814 449.191 293.148 451.166C294.389 453.004 296.317 454.521 298.575 454.755C300.262 454.93 301.968 454.322 302.628 452.806C302.985 451.986 302.944 451.541 302.81 450.977L302.688 450.487C302.266 448.769 302.076 447.462 303.043 445.778ZM304.772 411.362C308.145 413.414 313.285 418.198 309.656 423.286C305.385 427.771 299.235 422.628 296.205 420.302C293.395 418.5 290.238 423.136 292.845 425.241C314.743 441.467 323.629 411.898 306.478 408.949C304.59 408.624 303.888 410.727 304.772 411.362ZM269.153 397.291C271.223 394.182 275.949 394.64 277.089 398.329C277.707 400.327 276.854 402.123 276.898 404.119C276.935 405.805 276.825 407.683 276.308 409.316C275.131 413.039 271.785 415.669 267.827 415.56C263.882 415.451 260.408 412.952 258.755 409.432C257.097 405.899 257.448 402.243 258.659 398.65C258.717 398.478 258.943 398.394 259.079 398.539C260.51 400.061 261.557 401.668 262.641 403.372L263.752 405.119C264.601 406.434 265.835 408.114 267.42 408.009L267.657 407.985C268.098 407.947 268.03 408.035 268.37 407.434C268.527 407.156 268.499 406.639 268.575 406.311L268.601 406.2L268.587 406.14C268.553 405.981 268.52 405.682 268.493 405.162L268.487 405.048C268.372 402.617 267.686 399.493 269.153 397.291ZM321.634 399.36C321.263 395.384 326.848 394.501 328.705 397.443C329.673 398.978 329.955 400.905 330.169 402.731L330.27 403.598C330.489 405.473 330.576 407.424 329.763 409.173C328.482 411.928 325.696 413.385 322.691 413.154C319.821 412.933 317.202 411.268 315.822 408.74C314.592 406.484 313.368 402.08 314.863 399.727C314.953 399.584 315.133 399.566 315.257 399.676C316.669 400.931 316.9 403.22 317.739 404.855C318.605 406.541 319.919 408.184 321.91 408.44C323.815 408.685 324.542 407.644 324.056 405.827C323.43 403.481 321.87 401.885 321.634 399.36ZM270.661 373.652L271.575 373.302C274.704 372.119 279.001 370.751 281.545 373.298C283.115 374.868 283.414 377.182 282.293 379.098C280.936 381.42 278.501 381.477 276.15 381.819C273.475 382.208 270.756 382.948 268.266 384.002C265.461 385.19 262.858 386.67 260.308 388.324C257.884 389.895 255.469 392.464 252.568 392.948C252.45 392.967 252.315 392.916 252.284 392.786C251.626 389.948 253.457 387.154 255.09 384.939C257.067 382.258 259.463 380.057 262.14 378.084C264.724 376.179 267.677 374.802 270.661 373.652ZM327.509 383.745L327.788 383.696C329.686 383.38 331.406 383.453 332.836 384.957C333.927 386.104 334.348 387.592 333.828 389.109C333.348 390.509 332.274 391.931 330.715 392.224C325.454 393.215 319.626 393.051 314.338 392.301C311.919 391.958 309.478 391.538 307.121 390.875L306.037 390.56C304.07 389.998 301.818 389.41 300.389 387.962C299.875 387.442 300.171 386.697 300.786 386.456C303.279 385.479 306.697 385.999 309.356 385.923C312.448 385.834 315.546 385.602 318.624 385.282C321.632 384.969 324.543 384.289 327.509 383.745Z" fill="black"/>
<path fill-rule="evenodd" clip-rule="evenodd" d="M356.641 377.325C356.273 377.263 355.905 377.206 355.537 377.152C355.25 376.989 354.913 376.863 354.52 376.787C353.625 376.56 352.735 376.406 351.847 376.324C339.103 373.453 309.619 377.529 308.402 388.414C304.343 389.77 300.832 388.556 296.128 388.676C292.547 373.698 230.645 375.812 227.668 384.842C227.657 384.839 227.645 384.837 227.634 384.833C224.773 383.947 220.556 384.161 217.282 384.02C210.291 383.874 203.292 384.497 196.452 385.973C183.643 388.01 166.163 390.395 175.071 406.403C175.072 406.406 175.074 406.409 175.076 406.412L175.077 406.41C176.613 407.985 179.218 406.717 179.315 404.585C176.32 397.001 183.085 396.091 188.289 393.911C201.24 389.255 214.425 388.609 227.819 390.05C228.827 391.237 230.356 392.272 231.972 392.814C240.927 394.302 236.208 400.951 241.869 401.918C240.829 425.094 268.943 437.744 285.233 422.509C291.737 416.145 293.288 406.717 294.796 398.219C295.593 398.04 296.1 397.604 296.396 397.026C298.314 395.11 299.518 393.34 303.31 392.814C307.102 392.288 310.021 393.344 310.416 393.667C310.516 393.868 310.622 394.069 310.747 394.27C310.92 394.57 311.156 394.809 311.424 394.998C307.679 418.076 325.581 432.672 343.653 420.702C351.506 413.309 353.165 401.99 353.493 391.888C354.557 391.245 355.231 389.999 354.863 388.433C354.355 386.273 355.546 384.404 357.443 383.465C359.907 382.246 359.471 377.794 356.641 377.325ZM278.987 388.274C276.743 387.78 275.785 391.241 278.036 391.736C279.629 392.087 280.98 392.891 281.892 394.254L281.988 394.402C283.213 396.352 286.309 394.552 285.076 392.589C283.689 390.381 281.533 388.834 278.987 388.274ZM344.687 386.127C343.896 385.57 342.699 385.984 342.24 386.772C341.735 387.639 342.066 388.605 342.807 389.172L342.882 389.228C343.562 389.707 344.223 390.566 344.306 391.446L344.314 391.556C344.403 393.86 347.979 393.871 347.89 391.556C347.803 389.292 346.493 387.4 344.687 386.127Z" fill="black"/>
<path d="M327.171 219.684C330.369 224.285 332.624 230.047 331.656 235.243C330.716 240.452 326.553 245.094 321.658 248.914C316.762 252.735 311.129 255.665 306.2 254.811C301.282 253.928 297.064 249.194 292.889 244.898C288.727 240.575 284.581 236.68 283.086 231.753C281.619 226.837 282.815 220.862 285.772 215.749C288.712 210.597 293.412 206.306 298.686 205.169C303.988 204.042 309.863 206.068 314.846 208.822C319.856 211.588 323.974 215.083 327.171 219.684Z" fill="#9FD8E5"/>
<path d="M335.115 135.944C340.098 143.136 343.606 152.146 342.086 160.278C340.609 168.427 334.103 175.699 326.455 181.684C318.807 187.67 310.01 192.265 302.318 190.937C294.645 189.566 288.069 182.166 281.562 175.455C275.072 168.699 268.609 162.614 266.285 154.908C264.005 147.22 265.883 137.869 270.507 129.865C275.105 121.799 282.45 115.079 290.683 113.289C298.96 111.517 308.126 114.675 315.897 118.975C323.712 123.293 330.133 128.753 335.115 135.944Z" fill="#9093D1"/>
<path d="M381.076 227.141C382.675 229.44 383.802 232.321 383.318 234.919C382.848 237.524 380.766 239.845 378.319 241.756C375.871 243.665 373.054 245.131 370.59 244.703C368.131 244.263 366.022 241.895 363.935 239.748C361.853 237.586 359.78 235.638 359.033 233.175C358.3 230.717 358.897 227.729 360.376 225.173C361.846 222.597 364.196 220.452 366.833 219.883C369.484 219.32 372.421 220.332 374.912 221.71C377.418 223.092 379.476 224.84 381.076 227.141Z" fill="#9093D1"/>
<path d="M412.34 120.492C414.918 124.2 416.736 128.844 415.955 133.033C415.197 137.231 411.842 140.973 407.895 144.053C403.95 147.132 399.409 149.494 395.437 148.805C391.472 148.094 388.073 144.277 384.707 140.815C381.352 137.331 378.011 134.191 376.806 130.22C375.623 126.258 376.588 121.441 378.97 117.32C381.341 113.167 385.13 109.709 389.38 108.792C393.653 107.884 398.389 109.517 402.405 111.737C406.444 113.966 409.763 116.783 412.34 120.492Z" fill="#9093D1"/>
<path d="M396.231 172.164C399.429 176.765 401.684 182.527 400.716 187.723C399.776 192.932 395.613 197.575 390.717 201.395C385.822 205.215 380.189 208.146 375.26 207.291C370.342 206.409 366.123 201.674 361.949 197.379C357.786 193.056 353.64 189.161 352.146 184.234C350.679 179.318 351.875 173.342 354.831 168.229C357.771 163.077 362.473 158.787 367.746 157.649C373.048 156.523 378.923 158.548 383.906 161.303C388.916 164.069 393.033 167.564 396.231 172.164Z" fill="#F7859C"/>
<path d="M478.765 220.821C483.748 228.012 487.256 237.023 485.736 245.155C484.259 253.303 477.753 260.575 470.105 266.561C462.457 272.546 453.66 277.141 445.968 275.813C438.295 274.442 431.719 267.043 425.212 260.331C418.723 253.576 412.259 247.49 409.935 239.784C407.656 232.097 409.533 222.745 414.157 214.741C418.755 206.675 426.1 199.955 434.333 198.165C442.61 196.394 451.777 199.552 459.548 203.851C467.363 208.169 473.783 213.629 478.765 220.821Z" fill="#FFDBB4"/>
<path d="M1260.18 231.212C1309.95 263.228 1355.28 310.462 1367.01 365.302C1379.06 420.144 1357.5 482.592 1325.49 539.97C1293.47 597.347 1250.67 649.018 1199.32 660.747C1147.97 672.159 1087.74 642.995 1029.72 617.952C971.714 592.592 915.604 571.353 881.051 529.192C846.815 487.031 834.135 423.63 842.06 361.498C849.668 299.05 877.881 237.869 924.48 205.218C971.396 172.567 1036.7 168.446 1096.29 175.103C1156.21 181.76 1210.41 199.195 1260.18 231.212Z" fill="#FFDBB4"/>
<path fill-rule="evenodd" clip-rule="evenodd" d="M1061.95 584.378C1068 555.681 1089.48 533.411 1118.37 522.318C1123.92 519.177 1129.3 505.699 1136.77 503.231C1137.96 502.835 1136.07 505.983 1136.77 506.171C1139.23 506.842 1142 506.912 1144.72 504.491C1149.59 500.161 1151.12 487.513 1154.08 481.796C1169.7 451.648 1208.69 463.444 1213.91 496.772C1217.55 499.147 1222.7 501.238 1226.66 503.152C1230.74 505.122 1234.34 509.894 1238.54 511.601C1242.3 513.123 1248.48 512.044 1252.26 513.371C1269.66 519.475 1284.4 527.177 1295.95 542.782C1298.38 546.073 1301.13 550.12 1303.34 553.445C1314.76 566.594 1322.69 581.332 1330 597.143C1350.43 643.553 1355.99 694.94 1360.98 744.945C1360.87 753.694 1366.67 777.955 1358.09 782.149C1358.6 782.681 1358.42 783.75 1357.46 783.741C1335.7 783.521 1313.98 785.47 1292.55 789.257C1282.21 791.086 1271.92 793.592 1261.39 794.005C1239.53 793.853 1217.74 790.189 1195.91 793.656C1169.66 793.656 1137.76 792.892 1108.56 791.768C1081.27 790.72 1053.83 793.089 1026.88 788.447C1024.75 788.11 1023.7 785.506 1024.15 783.642C1027.31 772.116 1028.87 760.255 1030.64 748.459C1030.29 740.892 1030.92 732.993 1033.72 725.946C1041.03 678.372 1050.4 631.108 1061.95 584.378Z" fill="#FFDBB4"/>
<path fill-rule="evenodd" clip-rule="evenodd" d="M1136.77 506.347C1136.07 506.158 1137.96 503.009 1136.77 503.405C1129.3 505.873 1123.92 519.352 1118.37 522.493C1089.48 533.586 1068 555.855 1061.95 584.553C1050.4 631.282 1041.03 678.546 1033.72 726.121C1030.92 733.169 1030.29 741.067 1030.64 748.633L1030.36 750.496C1028.7 761.677 1027.15 772.897 1024.15 783.816C1023.7 785.682 1024.75 788.284 1026.88 788.621C1053.53 793.211 1080.65 790.947 1107.63 791.908L1113.26 792.119C1141.15 793.145 1171.06 793.831 1195.91 793.831C1217.74 790.363 1239.53 794.028 1261.39 794.179C1271.92 793.766 1282.21 791.26 1292.55 789.432C1313.98 785.644 1335.7 783.696 1357.46 783.915C1358.42 783.924 1358.6 782.856 1358.09 782.323C1366.67 778.129 1360.87 753.869 1360.98 745.12L1360.53 740.615C1355.65 692.036 1349.82 642.336 1330 597.317L1329.4 596.037C1322.26 580.71 1314.45 566.413 1303.34 553.619L1302.66 552.602C1300.58 549.492 1298.14 545.919 1295.95 542.956C1284.4 527.352 1269.66 519.65 1252.26 513.546C1248.48 512.218 1242.3 513.297 1238.54 511.775C1234.61 510.179 1231.21 505.901 1227.45 503.742V519.845L1173 573.495L1142.12 526.13L1138.98 506.732C1138.22 506.685 1137.48 506.541 1136.77 506.347Z" fill="#8FA7DF"/>
<path fill-rule="evenodd" clip-rule="evenodd" d="M1070.76 646.912C1071.33 649.709 1072.14 652.506 1073.21 655.156C1074.25 657.713 1075.8 660.004 1076.88 662.531C1077.02 662.871 1077.26 663.128 1077.54 663.324L1077.45 664.012L1077.37 664.7C1076.83 669.338 1076.23 673.963 1075.71 678.6L1075.46 680.92C1074.43 690.603 1072.81 700.24 1071.56 709.897C1070.33 719.353 1069.08 728.81 1067.74 738.253C1066.35 747.989 1064.94 757.712 1063.3 767.408C1062.6 771.503 1061.88 775.595 1061.13 779.684L1060.54 782.813C1054.54 784.257 1052.9 792.627 1059.01 795.717C1061.78 797.113 1065.35 796.777 1067.64 794.583C1070.01 792.295 1070.11 788.171 1070.66 785.073L1071.19 782.194C1075.17 760.547 1078.62 738.652 1080.23 716.699C1080.65 711.031 1081 705.358 1081.22 699.68C1081.44 694.34 1081.33 689 1081.42 683.66L1081.44 682.203C1081.57 676.508 1081.47 670.822 1081.32 665.127C1081.3 664.433 1081.27 663.739 1081.24 663.041C1081.44 662.806 1081.58 662.526 1081.64 662.256L1081.72 661.898C1081.92 660.977 1081.69 659.899 1080.99 659.24C1080.68 655.361 1080.28 651.486 1080.17 647.61C1080.16 647.292 1079.7 647.301 1079.68 647.61C1079.42 650.909 1078.91 654.217 1078.39 657.521C1075.08 654.859 1072.63 650.468 1071.19 646.794C1071.08 646.528 1070.69 646.624 1070.76 646.912ZM1149.1 492.682C1148.56 495.196 1147.47 497.453 1146.01 499.551C1145.32 500.555 1144.53 501.489 1143.58 502.27C1142.77 502.938 1141.84 503.374 1140.98 503.955C1139.72 503.758 1138.41 504.234 1137.53 505.159L1137.67 503.806C1137.71 503.37 1136.99 503.283 1136.91 503.705C1133.09 522.96 1129.61 542.227 1126.59 561.621L1125.27 570.185L1124.03 578.225C1121.97 591.623 1119.97 605.015 1118.47 618.511C1116.47 636.522 1114.78 654.579 1113.55 672.663C1112.32 690.874 1111.56 709.098 1111.02 727.343C1110.88 731.944 1110.74 736.538 1110.6 741.138L1109.67 735.639C1108.74 730.139 1107.82 724.634 1107.04 719.109C1104.24 699.336 1101.99 679.423 1100.9 659.48C1099.9 641.23 1100.23 622.618 1104.87 604.839C1106.04 600.367 1107.47 595.963 1109.2 591.673C1110.88 587.501 1113.16 583.635 1114.97 579.525C1117.06 574.742 1117.69 570.229 1116.61 565.08C1115.67 560.594 1114.01 556.374 1113.72 551.757C1113.16 543.186 1115.95 534.885 1119.89 527.385C1120.93 525.408 1122.02 523.457 1123.17 521.524C1126.63 515.68 1130.53 510.05 1134.58 504.653C1134.79 504.365 1134.33 504.046 1134.1 504.282C1130.41 507.931 1126.37 511.518 1123.05 515.502C1121.44 517.439 1119.86 519.416 1118.37 521.446C1102 524.182 1087.93 534.379 1078.32 547.847C1067.4 563.129 1061.89 581.524 1057.8 599.637C1053.26 619.769 1049.43 640.083 1045.35 660.313C1041.13 681.248 1036.93 702.182 1032.68 723.11C1030.56 733.5 1028.45 743.891 1026.35 754.286C1025.28 759.549 1024.15 764.799 1022.98 770.044C1022.38 772.732 1021.73 775.417 1021.18 778.114C1020.55 781.155 1021.13 783.1 1023.19 785.335C1023.95 786.165 1025.15 786.151 1026.09 785.711L1026.39 785.572L1026.67 785.434C1027.84 784.861 1028.75 784.268 1029.48 782.991C1030.28 781.592 1030.4 780.038 1030.68 778.48C1031.18 775.612 1031.69 772.745 1032.19 769.874C1032.95 765.58 1033.77 761.298 1034.61 757.018L1038.81 735.624C1039.93 729.921 1041.05 724.217 1042.17 718.516C1046.2 698.127 1050.23 677.743 1054.26 657.359C1058.13 637.787 1061.56 618.08 1065.96 598.621L1066.22 597.525L1066.47 596.43C1070.41 579.654 1075.92 563.427 1085.9 549.213C1093.59 538.281 1104.27 528.519 1116.84 523.579C1115.96 524.854 1115.1 526.154 1114.29 527.481C1109.2 535.807 1105.48 545.691 1106.35 555.606C1106.78 560.45 1108.62 565.211 1108.44 570.095C1108.28 574.432 1105.6 578.242 1103.74 582.016C1099.53 590.57 1096.49 599.66 1094.52 608.985C1090.58 627.711 1090.6 646.978 1091.96 665.987C1093.43 686.65 1096.23 707.309 1099.42 727.771C1101.06 738.265 1103.23 748.674 1104.9 759.152C1105.72 764.318 1106.85 769.473 1107.83 774.614L1108.3 777.069C1108.56 778.433 1108.83 779.791 1109.14 781.135L1109.34 781.94V782.084C1109.35 783.075 1109.62 783.895 1110.05 784.55C1110.65 786.465 1111.39 788.334 1112.38 790.127C1112.88 791.043 1113.62 791.557 1114.42 791.746C1115.22 793.584 1117.04 794.997 1119.21 794.988L1147.78 794.879C1164.38 794.814 1180.98 794.705 1197.57 794.612C1201.76 794.591 1205.94 794.513 1210.13 794.403C1214.05 794.294 1217.81 793.823 1221.69 793.335C1226.07 792.785 1228.44 789.681 1227.79 785.305C1227.65 784.34 1227.49 783.381 1227.34 782.42C1228.21 782.709 1229.25 782.573 1229.95 781.888L1230.61 781.243C1231.53 780.34 1232.34 779.453 1232.92 778.248C1233.52 777.009 1234 775.7 1234.53 774.434C1235.67 771.711 1236.78 768.979 1237.86 766.234C1240.01 760.745 1242.17 755.233 1244.18 749.686C1248.16 738.702 1251.67 727.552 1254.73 716.276C1260.18 696.159 1264.13 675.653 1266.62 654.964L1267.21 650.033L1267.38 648.576C1268.33 640.557 1269.12 632.414 1268.75 624.411C1268.51 619.402 1267.74 614.353 1265.87 609.674C1264.14 605.359 1261.47 601.667 1258.94 597.809L1258.65 597.364L1258.36 596.908C1256.14 593.404 1254.37 589.741 1254.29 585.486C1254.2 581.168 1255.45 576.966 1256.86 572.923L1257.21 571.926L1257.45 571.265C1260.44 562.911 1263.84 554.674 1262.72 545.582C1261.06 532.194 1252.95 521.402 1242.74 513.08C1251.82 514.877 1260.8 518.43 1268.74 522.933C1278.1 528.257 1286.54 535.283 1293.81 543.212C1307.55 558.197 1317.37 576.177 1325.4 594.742C1333.8 614.169 1340.04 634.527 1344.74 655.152C1349.46 675.893 1352.63 696.966 1354.79 718.123C1355.86 728.652 1356.71 739.208 1357.41 749.769C1357.77 755.181 1358.04 760.601 1358.46 766.003C1358.88 771.401 1359.07 776.882 1360.38 782.137C1361 784.585 1365.15 784.833 1365.59 782.137C1366.58 776.114 1366.3 769.885 1366.03 763.786L1366 763.232C1365.73 757.158 1365.38 751.088 1364.96 745.018C1364.11 732.611 1362.96 720.221 1361.47 707.872C1356.24 664.52 1346.59 621.396 1327.67 581.824C1318.76 563.186 1307.33 545.076 1291.42 531.617C1283.85 525.216 1275.31 520.105 1266.11 516.405C1257.88 513.093 1249.52 511.526 1240.77 511.53C1236.39 508.17 1231.68 505.242 1226.98 502.742C1226.7 502.589 1226.4 502.956 1226.63 503.191C1226.76 503.308 1226.87 503.43 1227 503.545C1226.46 503.579 1225.91 503.828 1225.42 504.348C1223.69 506.159 1222.24 508.423 1220.93 510.775C1218.95 513.254 1217.05 515.816 1215.07 518.268C1211.9 522.195 1208.65 526.066 1205.37 529.906C1199.85 536.36 1194.15 542.692 1188.21 548.769L1187.22 549.78C1184.14 552.9 1181.02 556.635 1177.38 559.105L1177.18 559.234C1175.65 560.236 1174.56 560.419 1173.24 558.923C1172.05 557.561 1171.06 555.981 1170.04 554.48L1169.81 554.136C1164.6 546.573 1159.78 538.731 1155.41 530.658C1153.42 526.984 1151.53 523.256 1149.73 519.488L1149.19 518.355C1148.21 516.279 1147.15 514.24 1146.35 512.102C1146.16 511.601 1145.98 511.099 1145.8 510.601C1148.55 508.799 1150.67 504.898 1151.45 501.843C1152.25 498.67 1151.84 495.414 1150.41 492.512C1150.14 491.967 1149.24 492.102 1149.1 492.682ZM1284.7 621.605C1285.08 633.667 1285.31 645.742 1285.88 657.796L1286.07 661.91C1285.19 662.897 1284.67 664.036 1285.08 665.598C1285.25 666.197 1285.72 666.737 1286.31 666.939L1286.5 670.764C1287.34 687.978 1288.33 705.155 1290.13 722.325C1292.39 743.813 1295 765.265 1297.6 786.715C1297.97 789.752 1300.08 792.16 1303.37 791.716C1306.69 791.266 1308.04 788.372 1307.61 785.357C1305.89 773.527 1304.24 761.688 1302.8 749.817L1301.15 736.295C1299.09 719.39 1296.98 702.488 1294.55 685.637C1293.53 678.595 1292.47 671.555 1291.41 664.516L1291.79 664.036C1293.3 662.068 1294.87 660.143 1296.42 658.207C1299.39 654.47 1302.33 650.766 1305.05 646.855C1305.19 646.659 1304.91 646.371 1304.72 646.519C1300.9 649.343 1297.28 652.362 1293.64 655.431L1290.45 658.127C1288.62 645.965 1286.81 633.799 1285.19 621.605C1285.15 621.301 1284.69 621.278 1284.7 621.605ZM1229.72 506.171C1232.02 508.34 1234.37 510.462 1236.69 512.617L1237.54 513.411L1238.38 514.207C1242.46 518.07 1246.36 522.09 1249.61 526.709C1255.58 535.188 1259.13 545.525 1256.65 555.876C1254.59 564.451 1249.87 572.224 1248.6 581.013C1247.96 585.415 1248.27 589.841 1249.93 594C1251.62 598.242 1254.33 601.876 1256.76 605.704C1262.03 614.021 1262.75 623.151 1262.23 632.787C1261.68 642.849 1260.53 652.917 1259.1 662.889C1256.21 683.093 1251.86 703.089 1246.09 722.67C1243.21 732.476 1239.8 742.072 1236.41 751.707C1234.72 756.504 1232.75 761.186 1230.73 765.846C1229.66 768.299 1228.56 770.738 1227.45 773.172C1227.86 769.734 1227.86 766.204 1228.06 762.787C1228.35 757.89 1228.72 753.004 1229.05 748.111C1229.74 738.184 1230.35 728.247 1230.89 718.31C1232.83 682.875 1234.25 647.409 1234.14 611.918C1234.09 594.17 1233.73 576.422 1232.96 558.691C1232.61 550.342 1231.91 542 1231.29 533.661L1231.15 531.876C1230.6 524.391 1229.94 516.89 1228.8 509.471C1229.13 508.71 1229.43 507.94 1229.65 507.15L1229.72 506.853L1229.67 506.861C1229.72 506.629 1229.74 506.399 1229.72 506.171ZM1209.84 475.677C1209.79 475.472 1209.5 475.489 1209.44 475.677C1208.15 480.041 1208.61 484.84 1209.72 489.231C1210.32 491.609 1211.18 493.918 1212.21 496.144L1212.58 496.923C1213.46 498.817 1214.46 500.77 1216.18 501.952C1216.9 502.444 1218.19 502.475 1218.91 501.952L1219.28 501.673C1219.34 501.626 1219.4 501.577 1219.46 501.528C1220.13 500.965 1220.46 499.721 1220.15 498.901C1219.35 496.785 1217.54 495.231 1216.29 493.346C1215.18 491.67 1214.2 489.902 1213.38 488.065C1211.63 484.09 1210.84 479.871 1209.84 475.677Z" fill="black"/>
<path fill-rule="evenodd" clip-rule="evenodd" d="M1179.32 317.494C1154.6 317.494 1129.03 336.701 1119.97 348.957C1109.49 363.129 1101.23 431.161 1105.1 454.245C1108.98 477.33 1128.24 502.491 1161.68 502.491C1195.11 502.491 1215.46 498.363 1216.28 492.367C1216.82 488.37 1224.17 475.246 1238.33 452.996C1252.81 448.914 1260.08 441.997 1260.14 432.245C1260.19 422.494 1256.31 415.844 1248.5 412.296C1251.28 373.812 1249.17 349.561 1242.15 339.542C1231.62 324.513 1204.04 317.494 1179.32 317.494Z" fill="#FFDBB4"/>
<path fill-rule="evenodd" clip-rule="evenodd" d="M1195.99 280.22C1192.66 276.298 1186.8 280.005 1186.93 284.291C1185.61 284.651 1184.04 285.893 1183.44 287.513C1182.13 287.428 1180.81 287.688 1179.63 288.369L1179.38 288.06C1175.26 283.028 1169.82 278.71 1164.21 282.415C1162.68 283.424 1161.99 285.091 1162.33 286.897L1162.36 287.025L1162.23 286.467C1162.11 285.937 1162.3 286.998 1162.37 287.222L1162.38 287.248C1162.52 287.625 1162.67 287.816 1162.81 288.101C1157.06 284.007 1148.3 286.404 1152.92 294.328L1151.04 293.595C1144.55 291.081 1136.48 288.382 1130.57 292.902C1127.92 295.452 1130.86 298.852 1133.55 299.676L1133.09 299.598C1127.92 298.718 1117.13 296.543 1115.59 303.29C1115.03 305.717 1116.65 307.491 1118.69 308.468C1114.37 308.452 1110.12 309.165 1106.38 311.276C1102.83 313.806 1105.7 317.992 1109.42 317.81C1108.27 319.237 1107.88 321.652 1109 323.194C1106.89 323.75 1104.94 324.464 1103.14 325.577L1102.65 325.641C1099.06 326.09 1094.97 326.357 1093 329.888C1090.09 337.551 1100.43 337.246 1104.87 334.555C1104.61 334.984 1104.41 335.453 1104.31 335.953L1102.87 336.358C1097.44 337.871 1091.3 339.542 1087.8 344.121C1086.2 346.755 1088.43 351.233 1091.78 350.433C1082.7 354.765 1086.18 366.176 1095.06 360.24C1095.47 360.625 1095.98 360.911 1096.51 361.037L1094.63 362.055C1089.88 364.665 1084.16 368.238 1085.15 374.164C1086.09 377.3 1090.43 376.727 1092.64 375.527C1088.79 378.849 1085.15 382.446 1081.85 386.335L1080.93 387.425C1078.36 390.512 1073.89 396.194 1078.73 399.163C1084.7 402.208 1087.68 393.216 1091.15 390.007C1088.37 396.553 1097.4 401.119 1100.55 394.525C1101.08 394.618 1101.61 394.628 1102.13 394.557C1099.41 397.442 1092.07 417.185 1101.21 412.855C1102.66 411.313 1103.94 409.626 1105.11 407.856C1103.64 419.168 1102.57 430.533 1101.88 441.906L1101.63 446.028C1101.38 450.305 1101.19 454.599 1101.67 458.861C1102.22 463.823 1103.64 468.479 1105.8 472.974C1107.78 477.12 1110.34 480.96 1113.27 484.491C1114.84 486.38 1116.5 488.218 1118.55 489.6C1120.18 490.7 1122.08 491.425 1123.92 492.123C1126.9 495.107 1130.72 497.364 1134.46 499.166C1140.63 502.13 1147.31 503.766 1154.07 504.586C1160.99 505.42 1167.97 505.219 1174.83 504.028C1181.38 502.893 1188.4 499.991 1192.44 494.462C1192.79 493.986 1192.14 493.537 1191.71 493.733C1180 499.166 1166.84 500.584 1154.07 498.87C1148.12 498.071 1142.26 496.422 1136.82 493.86C1132.23 491.7 1128.36 488.558 1124.24 485.713C1123.44 484.643 1122.63 483.591 1121.71 482.614L1120.27 481.1C1119.19 479.962 1118.13 478.809 1117.17 477.565C1114.2 473.729 1111.74 469.378 1110.12 464.801C1106.96 455.89 1107.81 446.217 1108.37 436.931L1108.42 436.112C1108.99 426.18 1109.93 416.282 1111.23 406.42C1111.77 402.316 1112.37 398.218 1113.03 394.13C1114.08 392.412 1115.2 390.75 1116.46 389.193C1115.44 393.184 1118.99 398.734 1123.34 396.1C1128.32 391.83 1128.08 384.938 1132.26 379.71C1136.59 373.007 1166.46 359.971 1175.34 358.141C1173.91 360.227 1171.29 361.68 1170.68 364.142C1159.76 373.815 1177.56 378.964 1183.12 365.179C1183 369.768 1182.54 374.318 1181.52 378.797C1180.03 382.911 1178.87 394.831 1186.31 391.234C1189.87 392.265 1192.58 389.224 1193.03 385.795C1195.6 393.545 1193.17 405.929 1197.89 411.641C1199.33 413.143 1201.57 412.143 1202.32 410.427C1206.68 409.282 1206.31 404.185 1206.84 400.537C1210.82 415.078 1215.8 425.172 1216.48 440.34C1213.4 444.733 1220.15 447.963 1223.05 444.443C1227.12 438.554 1223.37 430.502 1222.41 424.054C1223.56 423.995 1224.69 423.486 1225.63 422.374C1226.15 424.397 1225.85 427.062 1225.68 429.258C1228.26 439.364 1238.06 432.891 1237.66 424.692C1238.08 427.006 1238.4 429.342 1238.61 431.695C1236.71 433.879 1235.31 436.493 1234.48 439.267C1233.88 441.272 1235.91 442.474 1237.47 442.183C1238.29 445.007 1241.87 447.044 1244.23 444.345C1246.56 441.985 1246.96 438.575 1247.15 435.18C1247.47 434.834 1247.67 434.382 1247.63 433.834C1247.61 433.319 1247.48 432.884 1247.28 432.516C1247.32 431.822 1247.37 431.141 1247.44 430.483C1249.25 436.101 1248.07 441.989 1247.92 447.744C1244.73 449.54 1241.1 450.308 1237.45 451.066L1236.92 451.176C1235.79 451.412 1235.44 453.096 1236.28 453.803C1234.02 456.02 1232.07 458.665 1230.17 461.104C1227.65 464.341 1225.23 467.705 1222.88 471.076L1221.5 473.057C1217.47 478.81 1211.9 486.603 1214.39 493.689C1214.73 494.662 1216.15 495.012 1216.71 493.99C1218.52 490.63 1219.54 486.929 1221.26 483.53C1222.95 480.196 1225.06 477.106 1227.15 474.017L1228.36 472.227C1230.36 469.236 1232.35 466.214 1234.19 463.134L1235.48 461C1236.68 458.987 1237.88 456.906 1238.77 454.742C1241.93 455.507 1245.24 454.958 1248.28 453.635L1248.32 453.846L1248.39 454.227C1248.83 456.056 1251.35 457.306 1252.95 456.109C1256.8 453.2 1258.37 448.871 1258.78 444.241C1259.56 442.933 1260.21 441.553 1260.75 440.123C1261 442.974 1262.1 445.738 1265.48 445.653C1271.35 445.17 1271.93 439.615 1270.34 434.09C1277.29 436.217 1278.1 426.369 1275.91 421.179C1276.72 420.936 1277.48 420.45 1277.91 419.795L1278.27 420.428C1279.6 422.745 1281.12 424.994 1283.23 426.197C1286.17 427.877 1290.46 425.796 1290.26 422.096C1289.63 416.068 1284.36 411.475 1281.15 406.644C1281.72 406.725 1282.31 406.704 1282.9 406.596C1289.31 410.183 1292.37 401.74 1290.11 396.848C1288.46 392.454 1285.46 388.675 1282.25 385.343L1283.19 385.907C1284.89 386.911 1286.78 387.879 1288.65 387.485C1300.87 395.535 1304.89 381.997 1291.17 377.766L1291.18 377.703C1292.55 376.372 1293.15 374.266 1292.08 372.163C1297.11 373.934 1304.29 369.927 1299.86 364.45C1296.97 361.721 1293.55 359.372 1289.77 358.144C1289.96 357.139 1290.02 356.116 1289.94 355.087L1290.17 355.118C1292.56 355.462 1295.5 356.44 1296.97 353.862C1297.72 352.564 1297.63 350.426 1296.41 349.416C1292.19 345.942 1287.38 343.052 1282.16 341.88C1281.96 341.243 1281.77 340.609 1281.55 339.978C1286.01 339.895 1291.02 333.961 1285.9 330.599C1281.39 328.3 1276.76 326.822 1271.67 326.959C1274.65 324.014 1272.9 318.676 1268.93 317.855C1271.53 312.317 1265.12 309.46 1260.34 310.333C1260.51 307.873 1259.2 305.131 1256.67 304.513C1258 296.727 1249.77 297.464 1244.62 299.309C1246.34 296.308 1244.57 292.776 1241.52 291.724C1236.54 290.593 1231.77 295.353 1227.97 298.272C1229.27 295.226 1228.18 292.419 1225.09 291.205C1221.92 289.96 1218.5 292.367 1215.85 294.003C1214.4 292.189 1211.94 291.598 1209.74 291.71C1209.5 291.029 1209.16 290.46 1208.71 290.011C1208.72 285.814 1201.6 283.507 1199.11 287.416C1198.68 284.698 1197.57 282.082 1195.99 280.22ZM1106.8 356.342L1106.72 356.794C1106.61 356.887 1106.51 356.986 1106.41 357.081C1106.09 357.157 1105.79 357.236 1105.5 357.318C1105.92 356.974 1106.36 356.655 1106.8 356.342ZM1101.3 345.328L1101.39 345.462C1101.41 345.484 1101.43 345.506 1101.45 345.527C1101.18 345.629 1100.91 345.733 1100.64 345.841L1100.24 346.005L1100.1 346.067C1100.5 345.817 1100.9 345.57 1101.3 345.328ZM1165.47 289.881L1165.71 289.941C1165.79 289.959 1165.86 289.977 1165.93 289.993C1165.95 289.999 1165.97 290.002 1166 290.011L1165.93 289.997C1166.05 290.084 1166.2 290.186 1166.32 290.268C1166.2 290.258 1166.08 290.246 1165.96 290.239C1165.79 290.119 1165.63 290 1165.47 289.881Z" fill="black"/>
<path fill-rule="evenodd" clip-rule="evenodd" d="M1142.49 462.417C1141.82 461.252 1140.28 460.174 1138.87 460.34C1132.55 461.08 1132.57 468.741 1135 473.213C1137.17 477.179 1141.64 479.506 1146.12 479.166C1150.83 478.809 1154.84 476.042 1156.6 471.638C1157.77 468.725 1158.31 463.348 1155.21 461.39C1155.15 461.353 1155.05 461.363 1155.01 461.415C1153.52 463.147 1153.46 465.748 1152.16 467.676C1150.94 469.47 1149.06 470.951 1146.86 471.179C1145.21 471.35 1143.54 470.756 1142.9 469.277C1142.55 468.477 1142.59 468.042 1142.72 467.491L1142.84 467.013C1143.25 465.336 1143.44 464.061 1142.49 462.417ZM1140.8 428.821C1137.51 430.824 1132.49 435.494 1136.03 440.461C1140.2 444.839 1146.21 439.819 1149.17 437.548C1151.92 435.788 1155 440.314 1152.45 442.369C1131.06 458.208 1122.39 429.345 1139.14 426.466C1140.98 426.148 1141.67 428.201 1140.8 428.821ZM1175.59 415.085C1173.57 412.051 1168.96 412.498 1167.84 416.099C1167.24 418.05 1168.07 419.803 1168.03 421.752C1167.99 423.397 1168.1 425.231 1168.6 426.824C1169.75 430.459 1173.02 433.025 1176.89 432.919C1180.74 432.813 1184.14 430.374 1185.75 426.938C1187.37 423.489 1187.03 419.92 1185.84 416.413C1185.79 416.244 1185.57 416.162 1185.43 416.304C1184.04 417.791 1183.01 419.358 1181.95 421.022L1180.87 422.727C1180.04 424.011 1178.84 425.65 1177.29 425.548L1177.05 425.526C1176.62 425.488 1176.69 425.574 1176.36 424.987C1176.21 424.715 1176.23 424.211 1176.16 423.891L1176.13 423.783L1176.15 423.724C1176.18 423.569 1176.21 423.277 1176.24 422.77L1176.24 422.657C1176.36 420.285 1177.03 417.236 1175.59 415.085ZM1124.33 417.106C1124.7 413.225 1119.24 412.363 1117.43 415.234C1116.48 416.732 1116.21 418.614 1116 420.396L1115.9 421.242C1115.68 423.073 1115.6 424.978 1116.39 426.685C1117.64 429.374 1120.37 430.796 1123.3 430.571C1126.1 430.356 1128.66 428.73 1130.01 426.261C1131.21 424.06 1132.41 419.76 1130.95 417.464C1130.86 417.324 1130.68 417.307 1130.56 417.414C1129.18 418.639 1128.96 420.873 1128.14 422.47C1127.29 424.116 1126.01 425.72 1124.06 425.97C1122.2 426.209 1121.49 425.193 1121.97 423.419C1122.58 421.128 1124.1 419.57 1124.33 417.106ZM1174.12 392.011L1173.23 391.669C1170.17 390.514 1165.98 389.179 1163.49 391.665C1161.96 393.198 1161.66 395.456 1162.76 397.327C1164.09 399.593 1166.46 399.649 1168.76 399.983C1171.37 400.363 1174.03 401.085 1176.46 402.114C1179.2 403.273 1181.74 404.718 1184.23 406.333C1186.6 407.867 1188.96 410.374 1191.79 410.846C1191.91 410.865 1192.04 410.816 1192.07 410.689C1192.71 407.917 1190.93 405.191 1189.33 403.028C1187.4 400.411 1185.06 398.263 1182.44 396.337C1179.92 394.478 1177.04 393.134 1174.12 392.011ZM1118.6 401.863L1118.32 401.815C1116.47 401.506 1114.79 401.577 1113.39 403.046C1112.33 404.166 1111.92 405.618 1112.42 407.099C1112.89 408.465 1113.94 409.854 1115.46 410.14C1120.6 411.108 1126.29 410.947 1131.46 410.215C1133.82 409.88 1136.21 409.47 1138.51 408.823L1139.57 408.516C1141.49 407.967 1143.69 407.393 1145.08 405.98C1145.59 405.472 1145.3 404.745 1144.7 404.51C1142.26 403.555 1138.92 404.063 1136.33 403.989C1133.31 403.902 1130.28 403.676 1127.27 403.364C1124.34 403.059 1121.49 402.394 1118.6 401.863Z" fill="black"/>
<path fill-rule="evenodd" clip-rule="evenodd" d="M1101.76 431.479C1107.05 436.954 1115.9 438.524 1122.94 435.588C1141.04 428.026 1132.18 404.439 1118.23 398.105C1116.48 397.67 1114.15 396.639 1112.03 396.405C1111.84 396.311 1111.42 396.584 1110.92 396.325C1095.53 398.044 1092.02 421.937 1101.76 431.479ZM1160.12 432.88C1166.06 440.761 1177.11 443.194 1186.13 439.529C1203.96 432.507 1197.64 411.592 1185.44 403.392C1159.67 393.707 1149.03 418.348 1160.12 432.88ZM1198.77 415.417C1198.79 415.409 1198.8 415.404 1198.82 415.397C1198.73 415.355 1198.63 415.314 1198.54 415.272C1198.57 415.352 1198.6 415.431 1198.63 415.51C1198.68 415.479 1198.72 415.441 1198.77 415.417ZM1089.49 406.897C1090.95 406.9 1093.05 407.139 1094.25 408.148C1097.22 398.132 1108.18 388.861 1117.71 395.621C1125.22 398.035 1130.79 403.391 1133.96 410.51C1139.66 407.114 1148.64 408.564 1153.59 413.055C1156.83 402.342 1164.81 398.59 1174.3 398.035C1184.67 396.338 1195 406.406 1198.22 414.483C1200.9 414.177 1204.91 413.325 1207.43 414.979C1223.79 410.687 1252.4 408.32 1255.73 410.704C1258.1 411.615 1259.4 417.212 1256.09 417.513C1253.2 417.104 1256.43 413.413 1253.52 413.01C1238.02 412.049 1222.97 415.171 1207.64 416.48C1206.27 418.323 1201.85 418.939 1199.49 418.199C1203.2 431.9 1195.18 441.221 1183.16 444.014C1164.54 448.29 1148.35 431.634 1153.22 414.309C1147.58 411.503 1141.09 411.624 1134.95 413.102C1145.21 450.889 1084.37 449.193 1093.87 409.444C1087.55 412.59 1086.17 407.532 1089.49 406.897Z" fill="black"/>
<path d="M1022.54 628.957C1022.37 626.306 1022.87 623.413 1024.53 621.538C1026.19 619.651 1029.01 618.781 1031.93 618.425C1034.84 618.069 1037.84 618.255 1039.63 619.808C1041.4 621.368 1041.95 624.323 1042.59 627.088C1043.22 629.863 1043.94 632.459 1043.34 634.827C1042.73 637.183 1040.79 639.319 1038.34 640.674C1035.89 642.05 1032.93 642.645 1030.52 641.817C1028.1 640.979 1026.21 638.72 1024.87 636.384C1023.52 634.035 1022.71 631.608 1022.54 628.957Z" fill="#9093D1"/>
<path d="M906.269 666.503C905.933 661.201 906.928 655.415 910.255 651.665C913.567 647.891 919.211 646.152 925.045 645.44C930.879 644.728 936.874 645.099 940.447 648.204C943.997 651.325 945.095 657.235 946.372 662.767C947.627 668.314 949.077 673.507 947.875 678.243C946.656 682.956 942.762 687.227 937.865 689.939C932.962 692.689 927.055 693.878 922.228 692.225C917.384 690.549 913.618 686.031 910.932 681.357C908.23 676.66 906.606 671.806 906.269 666.503Z" fill="#F7859C"/>
<path d="M973.002 732.356C972.665 727.053 973.66 721.268 976.988 717.517C980.299 713.744 985.943 712.005 991.778 711.293C997.611 710.581 1003.61 710.952 1007.18 714.056C1010.73 717.176 1011.83 723.087 1013.1 728.618C1014.36 734.167 1015.81 739.36 1014.61 744.096C1013.39 748.807 1009.49 753.08 1004.6 755.79C999.694 758.541 993.788 759.73 988.961 758.077C984.116 756.401 980.35 751.883 977.665 747.209C974.962 742.511 973.339 737.658 973.002 732.356Z" fill="#F7859C"/>
<path d="M940.345 586.342C939.831 578.061 941.401 569.023 946.613 563.157C951.799 557.255 960.627 554.525 969.75 553.398C978.873 552.272 988.246 552.837 993.823 557.676C999.365 562.542 1001.07 571.77 1003.05 580.406C1005 589.068 1007.25 597.174 1005.36 604.573C1003.44 611.936 997.345 618.619 989.682 622.864C982.01 627.172 972.773 629.045 965.23 626.475C957.661 623.869 951.785 616.822 947.598 609.529C943.384 602.199 940.858 594.623 940.345 586.342Z" fill="#9FD8E5"/>
<path d="M970.141 666.504C969.804 661.202 970.799 655.416 974.127 651.665C977.438 647.892 983.083 646.153 988.917 645.441C994.75 644.729 1000.75 645.1 1004.32 648.204C1007.87 651.326 1008.97 657.236 1010.24 662.768C1011.5 668.315 1012.95 673.508 1011.75 678.244C1010.53 682.956 1006.63 687.228 1001.74 689.939C996.833 692.689 990.927 693.878 986.1 692.225C981.255 690.549 977.489 686.031 974.804 681.357C972.101 676.661 970.478 671.807 970.141 666.504Z" fill="#FFDBB4"/>
</svg>
